<svg width="23" height="21" viewBox="0 0 23 21" fill="none" xmlns="http://www.w3.org/2000/svg">
<path d="M21.4193 11.5122H12.1615L18.3334 17.7231C18.5677 17.9575 18.9584 17.9575 19.1927 17.7231C20.7162 16.3169 21.7709 14.4028 22.0443 12.2153C22.1224 11.8638 21.8099 11.5122 21.4193 11.5122ZM20.7943 9.01221C20.4818 4.32471 16.7709 0.61377 12.0834 0.30127C11.7318 0.262207 11.4584 0.574707 11.4584 0.92627V9.63721H20.1693C20.5209 9.63721 20.8334 9.36377 20.7943 9.01221ZM9.58337 11.5122V2.25439C9.58337 1.90283 9.23181 1.59033 8.88025 1.62939C4.19275 2.29346 0.638062 6.35596 0.833374 11.2388C0.989624 16.2388 5.2865 20.3403 10.3256 20.2622C12.2787 20.2622 14.1146 19.6372 15.599 18.5435C15.9115 18.3481 15.9115 17.8794 15.6381 17.606L9.58337 11.5122Z" fill="white"/>
</svg>
